<mxfile host="app.diagrams.net" agent="Mozilla/5.0 (Windows NT 10.0; Win64; x64) AppleWebKit/537.36 (KHTML, like Gecko) Chrome/140.0.0.0 Safari/537.36 Edg/140.0.0.0" version="28.2.5">
  <diagram name="Page-1" id="vWNbKQMorLJ6gHH4VzjY">
    <mxGraphModel dx="1456" dy="1000" grid="1" gridSize="10" guides="1" tooltips="1" connect="1" arrows="1" fold="1" page="1" pageScale="1" pageWidth="850" pageHeight="1100" math="0" shadow="0">
      <root>
        <mxCell id="0" />
        <mxCell id="1" parent="0" />
        <mxCell id="JCFydj6C0-ckO6GdDDaU-2" style="edgeStyle=orthogonalEdgeStyle;rounded=0;orthogonalLoop=1;jettySize=auto;html=1;" edge="1" parent="1" source="JCFydj6C0-ckO6GdDDaU-1" target="JCFydj6C0-ckO6GdDDaU-3">
          <mxGeometry relative="1" as="geometry">
            <mxPoint x="320" y="120" as="targetPoint" />
          </mxGeometry>
        </mxCell>
        <mxCell id="JCFydj6C0-ckO6GdDDaU-1" value="loadgen" style="rounded=0;whiteSpace=wrap;html=1;fillColor=#fff2cc;strokeColor=#d6b656;" vertex="1" parent="1">
          <mxGeometry x="240" y="40" width="160" height="40" as="geometry" />
        </mxCell>
        <mxCell id="JCFydj6C0-ckO6GdDDaU-4" style="edgeStyle=orthogonalEdgeStyle;rounded=0;orthogonalLoop=1;jettySize=auto;html=1;" edge="1" parent="1" source="JCFydj6C0-ckO6GdDDaU-3" target="JCFydj6C0-ckO6GdDDaU-5">
          <mxGeometry relative="1" as="geometry">
            <mxPoint x="100" y="200" as="targetPoint" />
            <Array as="points">
              <mxPoint x="320" y="180" />
              <mxPoint x="80" y="180" />
            </Array>
          </mxGeometry>
        </mxCell>
        <mxCell id="JCFydj6C0-ckO6GdDDaU-6" style="edgeStyle=orthogonalEdgeStyle;rounded=0;orthogonalLoop=1;jettySize=auto;html=1;" edge="1" parent="1" source="JCFydj6C0-ckO6GdDDaU-3" target="JCFydj6C0-ckO6GdDDaU-7">
          <mxGeometry relative="1" as="geometry">
            <mxPoint x="279.9999999999999" y="200" as="targetPoint" />
            <Array as="points">
              <mxPoint x="320" y="190" />
              <mxPoint x="280" y="190" />
            </Array>
          </mxGeometry>
        </mxCell>
        <mxCell id="JCFydj6C0-ckO6GdDDaU-11" style="edgeStyle=orthogonalEdgeStyle;rounded=0;orthogonalLoop=1;jettySize=auto;html=1;" edge="1" parent="1" source="JCFydj6C0-ckO6GdDDaU-3" target="JCFydj6C0-ckO6GdDDaU-12">
          <mxGeometry relative="1" as="geometry">
            <mxPoint x="480" y="200" as="targetPoint" />
            <Array as="points">
              <mxPoint x="320" y="190" />
              <mxPoint x="480" y="190" />
            </Array>
          </mxGeometry>
        </mxCell>
        <mxCell id="JCFydj6C0-ckO6GdDDaU-17" style="edgeStyle=orthogonalEdgeStyle;rounded=0;orthogonalLoop=1;jettySize=auto;html=1;" edge="1" parent="1" source="JCFydj6C0-ckO6GdDDaU-3" target="JCFydj6C0-ckO6GdDDaU-16">
          <mxGeometry relative="1" as="geometry">
            <Array as="points">
              <mxPoint x="320" y="170" />
              <mxPoint x="880" y="170" />
            </Array>
          </mxGeometry>
        </mxCell>
        <mxCell id="JCFydj6C0-ckO6GdDDaU-23" style="edgeStyle=orthogonalEdgeStyle;rounded=0;orthogonalLoop=1;jettySize=auto;html=1;" edge="1" parent="1" source="JCFydj6C0-ckO6GdDDaU-3" target="JCFydj6C0-ckO6GdDDaU-22">
          <mxGeometry relative="1" as="geometry">
            <mxPoint x="1093.047572544643" y="180" as="targetPoint" />
          </mxGeometry>
        </mxCell>
        <mxCell id="JCFydj6C0-ckO6GdDDaU-3" value="frontend" style="rounded=0;whiteSpace=wrap;html=1;fillColor=#fff2cc;strokeColor=#d6b656;" vertex="1" parent="1">
          <mxGeometry x="240" y="120" width="160" height="40" as="geometry" />
        </mxCell>
        <mxCell id="JCFydj6C0-ckO6GdDDaU-8" style="edgeStyle=orthogonalEdgeStyle;rounded=0;orthogonalLoop=1;jettySize=auto;html=1;" edge="1" parent="1" source="JCFydj6C0-ckO6GdDDaU-5" target="JCFydj6C0-ckO6GdDDaU-9">
          <mxGeometry relative="1" as="geometry">
            <mxPoint x="160" y="280" as="targetPoint" />
          </mxGeometry>
        </mxCell>
        <mxCell id="JCFydj6C0-ckO6GdDDaU-5" value="userservice" style="rounded=0;whiteSpace=wrap;html=1;fillColor=#fff2cc;strokeColor=#d6b656;" vertex="1" parent="1">
          <mxGeometry y="200" width="160" height="40" as="geometry" />
        </mxCell>
        <mxCell id="JCFydj6C0-ckO6GdDDaU-7" value="contacts" style="rounded=0;whiteSpace=wrap;html=1;fillColor=#fff2cc;strokeColor=#d6b656;" vertex="1" parent="1">
          <mxGeometry x="200" y="200" width="160" height="40" as="geometry" />
        </mxCell>
        <mxCell id="JCFydj6C0-ckO6GdDDaU-9" value="accounts-db" style="rounded=0;whiteSpace=wrap;html=1;fillColor=#dae8fc;strokeColor=#6c8ebf;" vertex="1" parent="1">
          <mxGeometry x="80" y="280" width="160" height="40" as="geometry" />
        </mxCell>
        <mxCell id="JCFydj6C0-ckO6GdDDaU-10" style="edgeStyle=orthogonalEdgeStyle;rounded=0;orthogonalLoop=1;jettySize=auto;html=1;" edge="1" parent="1" source="JCFydj6C0-ckO6GdDDaU-7" target="JCFydj6C0-ckO6GdDDaU-9">
          <mxGeometry relative="1" as="geometry" />
        </mxCell>
        <mxCell id="JCFydj6C0-ckO6GdDDaU-19" style="edgeStyle=orthogonalEdgeStyle;rounded=0;orthogonalLoop=1;jettySize=auto;html=1;" edge="1" parent="1" source="JCFydj6C0-ckO6GdDDaU-12" target="JCFydj6C0-ckO6GdDDaU-18">
          <mxGeometry relative="1" as="geometry">
            <Array as="points">
              <mxPoint x="480" y="260" />
              <mxPoint x="680" y="260" />
            </Array>
          </mxGeometry>
        </mxCell>
        <mxCell id="JCFydj6C0-ckO6GdDDaU-12" value="ledgerwriter" style="rounded=0;whiteSpace=wrap;html=1;fillColor=#f8cecc;strokeColor=#b85450;" vertex="1" parent="1">
          <mxGeometry x="400" y="200" width="160" height="40" as="geometry" />
        </mxCell>
        <mxCell id="JCFydj6C0-ckO6GdDDaU-20" style="edgeStyle=orthogonalEdgeStyle;rounded=0;orthogonalLoop=1;jettySize=auto;html=1;" edge="1" parent="1" source="JCFydj6C0-ckO6GdDDaU-14" target="JCFydj6C0-ckO6GdDDaU-18">
          <mxGeometry relative="1" as="geometry" />
        </mxCell>
        <mxCell id="JCFydj6C0-ckO6GdDDaU-14" value="balancereader" style="rounded=0;whiteSpace=wrap;html=1;fillColor=#f8cecc;strokeColor=#b85450;" vertex="1" parent="1">
          <mxGeometry x="600" y="200" width="160" height="40" as="geometry" />
        </mxCell>
        <mxCell id="JCFydj6C0-ckO6GdDDaU-15" style="edgeStyle=orthogonalEdgeStyle;rounded=0;orthogonalLoop=1;jettySize=auto;html=1;" edge="1" parent="1" source="JCFydj6C0-ckO6GdDDaU-3" target="JCFydj6C0-ckO6GdDDaU-14">
          <mxGeometry relative="1" as="geometry">
            <Array as="points">
              <mxPoint x="320" y="180" />
              <mxPoint x="680" y="180" />
            </Array>
          </mxGeometry>
        </mxCell>
        <mxCell id="JCFydj6C0-ckO6GdDDaU-21" style="edgeStyle=orthogonalEdgeStyle;rounded=0;orthogonalLoop=1;jettySize=auto;html=1;entryX=0.5;entryY=0;entryDx=0;entryDy=0;" edge="1" parent="1" source="JCFydj6C0-ckO6GdDDaU-16" target="JCFydj6C0-ckO6GdDDaU-18">
          <mxGeometry relative="1" as="geometry">
            <Array as="points">
              <mxPoint x="880" y="260" />
              <mxPoint x="680" y="260" />
            </Array>
          </mxGeometry>
        </mxCell>
        <mxCell id="JCFydj6C0-ckO6GdDDaU-16" value="transactionhistory" style="rounded=0;whiteSpace=wrap;html=1;fillColor=#f8cecc;strokeColor=#b85450;" vertex="1" parent="1">
          <mxGeometry x="800" y="200" width="160" height="40" as="geometry" />
        </mxCell>
        <mxCell id="JCFydj6C0-ckO6GdDDaU-18" value="ledger-db" style="rounded=0;whiteSpace=wrap;html=1;fillColor=#dae8fc;strokeColor=#6c8ebf;" vertex="1" parent="1">
          <mxGeometry x="600" y="280" width="160" height="40" as="geometry" />
        </mxCell>
        <mxCell id="JCFydj6C0-ckO6GdDDaU-25" value="" style="edgeStyle=orthogonalEdgeStyle;rounded=0;orthogonalLoop=1;jettySize=auto;html=1;" edge="1" parent="1" source="JCFydj6C0-ckO6GdDDaU-22" target="JCFydj6C0-ckO6GdDDaU-24">
          <mxGeometry relative="1" as="geometry">
            <Array as="points">
              <mxPoint x="1120" y="360" />
              <mxPoint x="960" y="360" />
            </Array>
          </mxGeometry>
        </mxCell>
        <mxCell id="JCFydj6C0-ckO6GdDDaU-26" style="edgeStyle=orthogonalEdgeStyle;rounded=0;orthogonalLoop=1;jettySize=auto;html=1;" edge="1" parent="1" source="JCFydj6C0-ckO6GdDDaU-22" target="JCFydj6C0-ckO6GdDDaU-27">
          <mxGeometry relative="1" as="geometry">
            <mxPoint x="1200" y="390" as="targetPoint" />
            <Array as="points">
              <mxPoint x="1120" y="360" />
              <mxPoint x="1280" y="360" />
            </Array>
          </mxGeometry>
        </mxCell>
        <mxCell id="JCFydj6C0-ckO6GdDDaU-31" style="edgeStyle=orthogonalEdgeStyle;rounded=0;orthogonalLoop=1;jettySize=auto;html=1;" edge="1" parent="1" source="JCFydj6C0-ckO6GdDDaU-22" target="JCFydj6C0-ckO6GdDDaU-12">
          <mxGeometry relative="1" as="geometry">
            <Array as="points">
              <mxPoint x="1100" y="340" />
              <mxPoint x="500" y="340" />
            </Array>
          </mxGeometry>
        </mxCell>
        <mxCell id="JCFydj6C0-ckO6GdDDaU-44" style="edgeStyle=orthogonalEdgeStyle;rounded=0;orthogonalLoop=1;jettySize=auto;html=1;" edge="1" parent="1" source="JCFydj6C0-ckO6GdDDaU-22" target="JCFydj6C0-ckO6GdDDaU-43">
          <mxGeometry relative="1" as="geometry" />
        </mxCell>
        <mxCell id="JCFydj6C0-ckO6GdDDaU-22" value="investment-manager-svc" style="rounded=0;whiteSpace=wrap;html=1;fillColor=#fff2cc;strokeColor=#d6b656;" vertex="1" parent="1">
          <mxGeometry x="1040" y="200" width="160" height="40" as="geometry" />
        </mxCell>
        <mxCell id="JCFydj6C0-ckO6GdDDaU-35" style="edgeStyle=orthogonalEdgeStyle;rounded=0;orthogonalLoop=1;jettySize=auto;html=1;entryX=1;entryY=0.5;entryDx=0;entryDy=0;" edge="1" parent="1" source="JCFydj6C0-ckO6GdDDaU-24" target="JCFydj6C0-ckO6GdDDaU-32">
          <mxGeometry relative="1" as="geometry" />
        </mxCell>
        <mxCell id="JCFydj6C0-ckO6GdDDaU-46" style="edgeStyle=orthogonalEdgeStyle;rounded=0;orthogonalLoop=1;jettySize=auto;html=1;" edge="1" parent="1" source="JCFydj6C0-ckO6GdDDaU-24" target="JCFydj6C0-ckO6GdDDaU-40">
          <mxGeometry relative="1" as="geometry">
            <Array as="points">
              <mxPoint x="960" y="590" />
            </Array>
          </mxGeometry>
        </mxCell>
        <mxCell id="JCFydj6C0-ckO6GdDDaU-47" style="edgeStyle=orthogonalEdgeStyle;rounded=0;orthogonalLoop=1;jettySize=auto;html=1;" edge="1" parent="1" source="JCFydj6C0-ckO6GdDDaU-24" target="JCFydj6C0-ckO6GdDDaU-39">
          <mxGeometry relative="1" as="geometry">
            <Array as="points">
              <mxPoint x="980" y="550" />
            </Array>
          </mxGeometry>
        </mxCell>
        <mxCell id="JCFydj6C0-ckO6GdDDaU-24" value="withdraw-svc" style="rounded=0;whiteSpace=wrap;html=1;fillColor=#fff2cc;strokeColor=#d6b656;" vertex="1" parent="1">
          <mxGeometry x="880" y="440" width="160" height="40" as="geometry" />
        </mxCell>
        <mxCell id="JCFydj6C0-ckO6GdDDaU-29" style="edgeStyle=orthogonalEdgeStyle;rounded=0;orthogonalLoop=1;jettySize=auto;html=1;entryX=1;entryY=0.5;entryDx=0;entryDy=0;" edge="1" parent="1" source="JCFydj6C0-ckO6GdDDaU-27" target="JCFydj6C0-ckO6GdDDaU-14">
          <mxGeometry relative="1" as="geometry">
            <Array as="points">
              <mxPoint x="1260" y="380" />
              <mxPoint x="780" y="380" />
              <mxPoint x="780" y="220" />
            </Array>
          </mxGeometry>
        </mxCell>
        <mxCell id="JCFydj6C0-ckO6GdDDaU-34" style="edgeStyle=orthogonalEdgeStyle;rounded=0;orthogonalLoop=1;jettySize=auto;html=1;" edge="1" parent="1" source="JCFydj6C0-ckO6GdDDaU-27" target="JCFydj6C0-ckO6GdDDaU-32">
          <mxGeometry relative="1" as="geometry">
            <Array as="points">
              <mxPoint x="1240" y="400" />
              <mxPoint x="500" y="400" />
            </Array>
          </mxGeometry>
        </mxCell>
        <mxCell id="JCFydj6C0-ckO6GdDDaU-42" style="edgeStyle=orthogonalEdgeStyle;rounded=0;orthogonalLoop=1;jettySize=auto;html=1;" edge="1" parent="1" source="JCFydj6C0-ckO6GdDDaU-27" target="JCFydj6C0-ckO6GdDDaU-40">
          <mxGeometry relative="1" as="geometry">
            <Array as="points">
              <mxPoint x="1280" y="600" />
            </Array>
          </mxGeometry>
        </mxCell>
        <mxCell id="JCFydj6C0-ckO6GdDDaU-27" value="invest-svc" style="rounded=0;whiteSpace=wrap;html=1;fillColor=#fff2cc;strokeColor=#d6b656;" vertex="1" parent="1">
          <mxGeometry x="1200" y="440" width="160" height="40" as="geometry" />
        </mxCell>
        <mxCell id="JCFydj6C0-ckO6GdDDaU-33" style="edgeStyle=orthogonalEdgeStyle;rounded=0;orthogonalLoop=1;jettySize=auto;html=1;" edge="1" parent="1" source="JCFydj6C0-ckO6GdDDaU-32" target="JCFydj6C0-ckO6GdDDaU-18">
          <mxGeometry relative="1" as="geometry">
            <Array as="points">
              <mxPoint x="480" y="380" />
              <mxPoint x="680" y="380" />
            </Array>
          </mxGeometry>
        </mxCell>
        <mxCell id="JCFydj6C0-ckO6GdDDaU-37" value="" style="edgeStyle=orthogonalEdgeStyle;rounded=0;orthogonalLoop=1;jettySize=auto;html=1;" edge="1" parent="1" source="JCFydj6C0-ckO6GdDDaU-32" target="JCFydj6C0-ckO6GdDDaU-36">
          <mxGeometry relative="1" as="geometry" />
        </mxCell>
        <mxCell id="JCFydj6C0-ckO6GdDDaU-48" style="edgeStyle=orthogonalEdgeStyle;rounded=0;orthogonalLoop=1;jettySize=auto;html=1;" edge="1" parent="1" source="JCFydj6C0-ckO6GdDDaU-32" target="JCFydj6C0-ckO6GdDDaU-40">
          <mxGeometry relative="1" as="geometry">
            <Array as="points">
              <mxPoint x="500" y="520" />
              <mxPoint x="940" y="520" />
              <mxPoint x="940" y="610" />
            </Array>
          </mxGeometry>
        </mxCell>
        <mxCell id="JCFydj6C0-ckO6GdDDaU-32" value="user-tier-agent" style="rounded=0;whiteSpace=wrap;html=1;fillColor=#d5e8d4;strokeColor=#82b366;" vertex="1" parent="1">
          <mxGeometry x="400" y="440" width="160" height="40" as="geometry" />
        </mxCell>
        <mxCell id="JCFydj6C0-ckO6GdDDaU-50" style="edgeStyle=orthogonalEdgeStyle;rounded=0;orthogonalLoop=1;jettySize=auto;html=1;" edge="1" parent="1" source="JCFydj6C0-ckO6GdDDaU-36" target="JCFydj6C0-ckO6GdDDaU-49">
          <mxGeometry relative="1" as="geometry" />
        </mxCell>
        <mxCell id="JCFydj6C0-ckO6GdDDaU-68" style="edgeStyle=orthogonalEdgeStyle;rounded=0;orthogonalLoop=1;jettySize=auto;html=1;" edge="1" parent="1" source="JCFydj6C0-ckO6GdDDaU-36" target="JCFydj6C0-ckO6GdDDaU-67">
          <mxGeometry relative="1" as="geometry">
            <Array as="points">
              <mxPoint x="690" y="580" />
              <mxPoint x="690" y="660" />
            </Array>
          </mxGeometry>
        </mxCell>
        <mxCell id="JCFydj6C0-ckO6GdDDaU-36" value="queue-db" style="rounded=0;whiteSpace=wrap;html=1;fillColor=#dae8fc;strokeColor=#6c8ebf;" vertex="1" parent="1">
          <mxGeometry x="400" y="560" width="160" height="40" as="geometry" />
        </mxCell>
        <mxCell id="JCFydj6C0-ckO6GdDDaU-72" style="edgeStyle=orthogonalEdgeStyle;rounded=0;orthogonalLoop=1;jettySize=auto;html=1;" edge="1" parent="1" source="JCFydj6C0-ckO6GdDDaU-39" target="JCFydj6C0-ckO6GdDDaU-67">
          <mxGeometry relative="1" as="geometry">
            <Array as="points">
              <mxPoint x="800" y="570" />
            </Array>
          </mxGeometry>
        </mxCell>
        <mxCell id="JCFydj6C0-ckO6GdDDaU-39" value="user-portfolio-tb" style="rounded=0;whiteSpace=wrap;html=1;fillColor=#dae8fc;strokeColor=#6c8ebf;" vertex="1" parent="1">
          <mxGeometry x="1040" y="540" width="160" height="40" as="geometry" />
        </mxCell>
        <mxCell id="JCFydj6C0-ckO6GdDDaU-73" style="edgeStyle=orthogonalEdgeStyle;rounded=0;orthogonalLoop=1;jettySize=auto;html=1;" edge="1" parent="1" source="JCFydj6C0-ckO6GdDDaU-40" target="JCFydj6C0-ckO6GdDDaU-67">
          <mxGeometry relative="1" as="geometry">
            <Array as="points">
              <mxPoint x="1040" y="660" />
            </Array>
          </mxGeometry>
        </mxCell>
        <mxCell id="JCFydj6C0-ckO6GdDDaU-40" value="portfolio-transactions-tb" style="rounded=0;whiteSpace=wrap;html=1;fillColor=#dae8fc;strokeColor=#6c8ebf;" vertex="1" parent="1">
          <mxGeometry x="1040" y="580" width="160" height="40" as="geometry" />
        </mxCell>
        <mxCell id="JCFydj6C0-ckO6GdDDaU-41" value="user-portfolios-db" style="text;html=1;align=center;verticalAlign=middle;whiteSpace=wrap;rounded=0;" vertex="1" parent="1">
          <mxGeometry x="1040" y="620" width="160" height="30" as="geometry" />
        </mxCell>
        <mxCell id="JCFydj6C0-ckO6GdDDaU-45" style="edgeStyle=orthogonalEdgeStyle;rounded=0;orthogonalLoop=1;jettySize=auto;html=1;" edge="1" parent="1" source="JCFydj6C0-ckO6GdDDaU-43" target="JCFydj6C0-ckO6GdDDaU-41">
          <mxGeometry relative="1" as="geometry">
            <Array as="points">
              <mxPoint x="1400" y="640" />
            </Array>
          </mxGeometry>
        </mxCell>
        <mxCell id="JCFydj6C0-ckO6GdDDaU-43" value="portfolio-reader-svc" style="rounded=0;whiteSpace=wrap;html=1;fillColor=#fff2cc;strokeColor=#d6b656;" vertex="1" parent="1">
          <mxGeometry x="1320" y="280" width="160" height="40" as="geometry" />
        </mxCell>
        <mxCell id="JCFydj6C0-ckO6GdDDaU-51" style="edgeStyle=orthogonalEdgeStyle;rounded=0;orthogonalLoop=1;jettySize=auto;html=1;" edge="1" parent="1" source="JCFydj6C0-ckO6GdDDaU-49" target="JCFydj6C0-ckO6GdDDaU-36">
          <mxGeometry relative="1" as="geometry" />
        </mxCell>
        <mxCell id="JCFydj6C0-ckO6GdDDaU-54" style="edgeStyle=orthogonalEdgeStyle;rounded=0;orthogonalLoop=1;jettySize=auto;html=1;" edge="1" parent="1" source="JCFydj6C0-ckO6GdDDaU-49" target="JCFydj6C0-ckO6GdDDaU-52">
          <mxGeometry relative="1" as="geometry">
            <Array as="points">
              <mxPoint x="380" y="700" />
              <mxPoint x="380" y="420" />
              <mxPoint x="160" y="420" />
            </Array>
          </mxGeometry>
        </mxCell>
        <mxCell id="JCFydj6C0-ckO6GdDDaU-49" value="user-request-queue-svc" style="rounded=0;whiteSpace=wrap;html=1;fillColor=#fff2cc;strokeColor=#d6b656;" vertex="1" parent="1">
          <mxGeometry x="400" y="680" width="160" height="40" as="geometry" />
        </mxCell>
        <mxCell id="JCFydj6C0-ckO6GdDDaU-56" style="edgeStyle=orthogonalEdgeStyle;rounded=0;orthogonalLoop=1;jettySize=auto;html=1;" edge="1" parent="1" source="JCFydj6C0-ckO6GdDDaU-52" target="JCFydj6C0-ckO6GdDDaU-55">
          <mxGeometry relative="1" as="geometry">
            <Array as="points">
              <mxPoint x="260" y="460" />
            </Array>
          </mxGeometry>
        </mxCell>
        <mxCell id="JCFydj6C0-ckO6GdDDaU-59" style="edgeStyle=orthogonalEdgeStyle;rounded=0;orthogonalLoop=1;jettySize=auto;html=1;" edge="1" parent="1" source="JCFydj6C0-ckO6GdDDaU-52" target="JCFydj6C0-ckO6GdDDaU-58">
          <mxGeometry relative="1" as="geometry">
            <Array as="points">
              <mxPoint x="100" y="540" />
              <mxPoint x="40" y="540" />
            </Array>
          </mxGeometry>
        </mxCell>
        <mxCell id="JCFydj6C0-ckO6GdDDaU-62" style="edgeStyle=orthogonalEdgeStyle;rounded=0;orthogonalLoop=1;jettySize=auto;html=1;" edge="1" parent="1" source="JCFydj6C0-ckO6GdDDaU-52" target="JCFydj6C0-ckO6GdDDaU-63">
          <mxGeometry relative="1" as="geometry">
            <mxPoint x="200" y="670" as="targetPoint" />
          </mxGeometry>
        </mxCell>
        <mxCell id="JCFydj6C0-ckO6GdDDaU-52" value="bank-asset-manager-agent" style="rounded=0;whiteSpace=wrap;html=1;fillColor=#d5e8d4;strokeColor=#82b366;" vertex="1" parent="1">
          <mxGeometry x="80" y="440" width="160" height="40" as="geometry" />
        </mxCell>
        <mxCell id="JCFydj6C0-ckO6GdDDaU-57" style="edgeStyle=orthogonalEdgeStyle;rounded=0;orthogonalLoop=1;jettySize=auto;html=1;" edge="1" parent="1" source="JCFydj6C0-ckO6GdDDaU-55" target="JCFydj6C0-ckO6GdDDaU-52">
          <mxGeometry relative="1" as="geometry">
            <Array as="points">
              <mxPoint x="260" y="460" />
            </Array>
          </mxGeometry>
        </mxCell>
        <mxCell id="JCFydj6C0-ckO6GdDDaU-61" style="edgeStyle=orthogonalEdgeStyle;rounded=0;orthogonalLoop=1;jettySize=auto;html=1;" edge="1" parent="1" source="JCFydj6C0-ckO6GdDDaU-55" target="JCFydj6C0-ckO6GdDDaU-58">
          <mxGeometry relative="1" as="geometry">
            <Array as="points">
              <mxPoint x="140" y="540" />
            </Array>
          </mxGeometry>
        </mxCell>
        <mxCell id="JCFydj6C0-ckO6GdDDaU-65" style="edgeStyle=orthogonalEdgeStyle;rounded=0;orthogonalLoop=1;jettySize=auto;html=1;" edge="1" parent="1" source="JCFydj6C0-ckO6GdDDaU-55" target="JCFydj6C0-ckO6GdDDaU-63">
          <mxGeometry relative="1" as="geometry">
            <Array as="points">
              <mxPoint x="260" y="680" />
              <mxPoint x="260" y="680" />
            </Array>
          </mxGeometry>
        </mxCell>
        <mxCell id="JCFydj6C0-ckO6GdDDaU-55" value="assets-db" style="rounded=0;whiteSpace=wrap;html=1;fillColor=#dae8fc;strokeColor=#6c8ebf;" vertex="1" parent="1">
          <mxGeometry x="180" y="520" width="160" height="40" as="geometry" />
        </mxCell>
        <mxCell id="JCFydj6C0-ckO6GdDDaU-60" style="edgeStyle=orthogonalEdgeStyle;rounded=0;orthogonalLoop=1;jettySize=auto;html=1;" edge="1" parent="1" source="JCFydj6C0-ckO6GdDDaU-58" target="JCFydj6C0-ckO6GdDDaU-55">
          <mxGeometry relative="1" as="geometry">
            <Array as="points">
              <mxPoint x="140" y="540" />
            </Array>
          </mxGeometry>
        </mxCell>
        <mxCell id="JCFydj6C0-ckO6GdDDaU-58" value="market-reader-svc" style="rounded=0;whiteSpace=wrap;html=1;fillColor=#fff2cc;strokeColor=#d6b656;" vertex="1" parent="1">
          <mxGeometry x="10" y="600" width="160" height="40" as="geometry" />
        </mxCell>
        <mxCell id="JCFydj6C0-ckO6GdDDaU-64" style="edgeStyle=orthogonalEdgeStyle;rounded=0;orthogonalLoop=1;jettySize=auto;html=1;" edge="1" parent="1" source="JCFydj6C0-ckO6GdDDaU-63" target="JCFydj6C0-ckO6GdDDaU-55">
          <mxGeometry relative="1" as="geometry">
            <Array as="points">
              <mxPoint x="260" y="660" />
              <mxPoint x="260" y="660" />
            </Array>
          </mxGeometry>
        </mxCell>
        <mxCell id="JCFydj6C0-ckO6GdDDaU-63" value="execute-order-svc" style="rounded=0;whiteSpace=wrap;html=1;fillColor=#fff2cc;strokeColor=#d6b656;" vertex="1" parent="1">
          <mxGeometry x="120" y="680" width="160" height="40" as="geometry" />
        </mxCell>
        <mxCell id="JCFydj6C0-ckO6GdDDaU-69" style="edgeStyle=orthogonalEdgeStyle;rounded=0;orthogonalLoop=1;jettySize=auto;html=1;" edge="1" parent="1" source="JCFydj6C0-ckO6GdDDaU-67" target="JCFydj6C0-ckO6GdDDaU-36">
          <mxGeometry relative="1" as="geometry">
            <Array as="points">
              <mxPoint x="690" y="660" />
              <mxPoint x="690" y="580" />
            </Array>
          </mxGeometry>
        </mxCell>
        <mxCell id="JCFydj6C0-ckO6GdDDaU-70" style="edgeStyle=orthogonalEdgeStyle;rounded=0;orthogonalLoop=1;jettySize=auto;html=1;" edge="1" parent="1" source="JCFydj6C0-ckO6GdDDaU-67" target="JCFydj6C0-ckO6GdDDaU-39">
          <mxGeometry relative="1" as="geometry">
            <Array as="points">
              <mxPoint x="800" y="570" />
            </Array>
          </mxGeometry>
        </mxCell>
        <mxCell id="JCFydj6C0-ckO6GdDDaU-71" style="edgeStyle=orthogonalEdgeStyle;rounded=0;orthogonalLoop=1;jettySize=auto;html=1;" edge="1" parent="1" source="JCFydj6C0-ckO6GdDDaU-67" target="JCFydj6C0-ckO6GdDDaU-40">
          <mxGeometry relative="1" as="geometry">
            <Array as="points">
              <mxPoint x="1040" y="660" />
            </Array>
          </mxGeometry>
        </mxCell>
        <mxCell id="JCFydj6C0-ckO6GdDDaU-67" value="consistency-manager-svc" style="rounded=0;whiteSpace=wrap;html=1;fillColor=#fff2cc;strokeColor=#d6b656;" vertex="1" parent="1">
          <mxGeometry x="720" y="640" width="160" height="40" as="geometry" />
        </mxCell>
      </root>
    </mxGraphModel>
  </diagram>
</mxfile>
